<?xml version="1.0" encoding="utf-8"?>
<!-- Generator: Adobe Illustrator 17.0.0, SVG Export Plug-In . SVG Version: 6.00 Build 0)  -->
<!DOCTYPE svg PUBLIC "-//W3C//DTD SVG 1.1//EN" "http://www.w3.org/Graphics/SVG/1.1/DTD/svg11.dtd">
<svg version="1.1" id="Layer_1" xmlns="http://www.w3.org/2000/svg" xmlns:xlink="http://www.w3.org/1999/xlink" x="0px" y="0px"
	 width="109.063px" height="94px" viewBox="0 0 109.063 94" enable-background="new 0 0 109.063 94" xml:space="preserve">
<g>
	<path fill-rule="evenodd" clip-rule="evenodd" fill="#535353" d="M107.115,92.794h-1.655c-0.583,0-1.043-0.17-1.38-0.511
		c-0.337-0.341-0.505-0.808-0.505-1.4v-4.832c0-0.592,0.168-1.059,0.505-1.399c0.337-0.341,0.796-0.512,1.38-0.512h1.655
		c0.583,0,1.043,0.171,1.38,0.512c0.336,0.341,0.505,0.807,0.505,1.399v4.832c0,0.592-0.168,1.059-0.505,1.4
		C108.158,92.624,107.699,92.794,107.115,92.794L107.115,92.794z M105.514,92.189h1.534c0.413,0,0.729-0.114,0.949-0.344
		c0.22-0.228,0.33-0.558,0.33-0.989v-4.778c0-0.431-0.11-0.76-0.33-0.989c-0.22-0.229-0.536-0.344-0.949-0.344h-1.534
		c-0.413,0-0.727,0.117-0.942,0.35c-0.215,0.233-0.323,0.561-0.323,0.983v4.778c0,0.422,0.108,0.749,0.323,0.983
		C104.787,92.072,105.101,92.189,105.514,92.189z"/>
	<path fill-rule="evenodd" clip-rule="evenodd" fill="#535353" d="M101.354,84.301v8.332c0,0.107-0.049,0.161-0.148,0.161h-0.391
		c-0.09,0-0.135-0.054-0.135-0.161v-8.332c0-0.107,0.045-0.161,0.135-0.161h0.391C101.306,84.139,101.354,84.193,101.354,84.301z"/>
	<path fill-rule="evenodd" clip-rule="evenodd" fill="#535353" d="M98.959,92.794h-4.281c-0.09,0-0.134-0.054-0.134-0.161v-8.332
		c0-0.107,0.045-0.161,0.134-0.161h0.391c0.098,0,0.148,0.054,0.148,0.161v7.74c0,0.08,0.045,0.121,0.134,0.121h3.608
		c0.107,0,0.162,0.049,0.162,0.148v0.337C99.12,92.745,99.066,92.794,98.959,92.794z"/>
	<path fill-rule="evenodd" clip-rule="evenodd" fill="#535353" d="M90.506,92.794h-1.655c-0.584,0-1.044-0.17-1.38-0.511
		c-0.336-0.341-0.505-0.808-0.505-1.4v-4.832c0-0.592,0.168-1.059,0.505-1.399c0.337-0.341,0.797-0.512,1.38-0.512h1.655
		c0.583,0,1.043,0.171,1.38,0.512c0.336,0.341,0.504,0.807,0.504,1.399v4.832c0,0.592-0.168,1.059-0.504,1.4
		C91.549,92.624,91.089,92.794,90.506,92.794L90.506,92.794z M88.904,92.189h1.534c0.413,0,0.729-0.114,0.949-0.344
		c0.22-0.228,0.329-0.558,0.329-0.989v-4.778c0-0.431-0.11-0.76-0.329-0.989c-0.22-0.229-0.537-0.344-0.949-0.344h-1.534
		c-0.413,0-0.727,0.117-0.942,0.35c-0.215,0.233-0.323,0.561-0.323,0.983v4.778c0,0.422,0.108,0.749,0.323,0.983
		C88.177,92.072,88.491,92.189,88.904,92.189z"/>
	<path fill-rule="evenodd" clip-rule="evenodd" fill="#535353" d="M81.447,92.794h-0.391c-0.09,0-0.134-0.054-0.134-0.161v-8.332
		c0-0.107,0.045-0.161,0.134-0.161h4.146c0.108,0,0.162,0.049,0.162,0.148v0.31c0,0.099-0.054,0.148-0.162,0.148H81.73
		c-0.09,0-0.134,0.041-0.134,0.121v3.271c0,0.072,0.045,0.108,0.134,0.108h3.109c0.099,0,0.148,0.049,0.148,0.148v0.324
		c0,0.099-0.049,0.148-0.148,0.148H81.73c-0.09,0-0.134,0.036-0.134,0.108v3.661C81.595,92.74,81.546,92.794,81.447,92.794z"/>
	<path fill-rule="evenodd" clip-rule="evenodd" fill="#535353" d="M77.154,92.794h-0.39c-0.099,0-0.148-0.054-0.148-0.161v-7.766
		c0-0.08-0.045-0.121-0.135-0.121h-1.951c-0.108,0-0.162-0.049-0.162-0.148v-0.31c0-0.099,0.054-0.148,0.162-0.148h4.845
		c0.108,0,0.162,0.049,0.162,0.148v0.31c0,0.099-0.054,0.148-0.162,0.148h-1.952c-0.09,0-0.134,0.041-0.134,0.121v7.766
		C77.288,92.74,77.243,92.794,77.154,92.794z"/>
	<path fill-rule="evenodd" clip-rule="evenodd" fill="#535353" d="M68.607,92.794h-0.391c-0.09,0-0.134-0.054-0.134-0.161v-8.332
		c0-0.107,0.045-0.161,0.134-0.161h3.069c0.583,0,1.045,0.171,1.386,0.512c0.341,0.341,0.511,0.807,0.511,1.399v1.279
		c0,0.502-0.128,0.915-0.383,1.238c-0.256,0.324-0.604,0.529-1.043,0.619v0.054l1.602,3.392c0.053,0.107,0.022,0.161-0.095,0.161
		h-0.417c-0.116,0-0.197-0.054-0.242-0.161l-1.588-3.392h-2.127c-0.09,0-0.135,0.041-0.135,0.121v3.271
		C68.754,92.74,68.705,92.794,68.607,92.794L68.607,92.794z M68.889,88.662h2.329c0.413,0,0.731-0.114,0.955-0.343
		c0.225-0.229,0.337-0.554,0.337-0.976v-1.265c0-0.422-0.112-0.749-0.337-0.983c-0.224-0.233-0.542-0.35-0.955-0.35h-2.329
		c-0.09,0-0.135,0.041-0.135,0.121v3.675C68.754,88.622,68.799,88.662,68.889,88.662z"/>
	<path fill-rule="evenodd" clip-rule="evenodd" fill="#535353" d="M64.044,92.794h-1.656c-0.583,0-1.043-0.17-1.38-0.511
		c-0.337-0.341-0.504-0.808-0.504-1.4v-4.832c0-0.592,0.168-1.059,0.504-1.399c0.337-0.341,0.797-0.512,1.38-0.512h1.656
		c0.583,0,1.043,0.171,1.38,0.512c0.336,0.341,0.505,0.807,0.505,1.399v4.832c0,0.592-0.168,1.059-0.505,1.4
		C65.087,92.624,64.627,92.794,64.044,92.794L64.044,92.794z M62.442,92.189h1.534c0.413,0,0.729-0.114,0.949-0.344
		c0.22-0.228,0.33-0.558,0.33-0.989v-4.778c0-0.431-0.11-0.76-0.33-0.989c-0.22-0.229-0.536-0.344-0.949-0.344h-1.534
		c-0.413,0-0.727,0.117-0.942,0.35c-0.215,0.233-0.323,0.561-0.323,0.983v4.778c0,0.422,0.108,0.749,0.323,0.983
		C61.715,92.072,62.029,92.189,62.442,92.189z"/>
	<path fill-rule="evenodd" clip-rule="evenodd" fill="#535353" d="M54.111,92.794H53.72c-0.09,0-0.135-0.054-0.135-0.161v-8.332
		c0-0.107,0.045-0.161,0.135-0.161h3.096c0.583,0,1.045,0.171,1.387,0.512c0.341,0.341,0.511,0.807,0.511,1.399v1.575
		c0,0.592-0.17,1.058-0.511,1.4c-0.341,0.341-0.803,0.511-1.387,0.511h-2.423c-0.09,0-0.134,0.037-0.134,0.108v2.988
		C54.258,92.74,54.209,92.794,54.111,92.794L54.111,92.794z M54.393,88.918h2.369c0.413,0,0.727-0.114,0.942-0.343
		c0.215-0.229,0.323-0.554,0.323-0.976v-1.521c0-0.431-0.108-0.76-0.323-0.989c-0.215-0.229-0.529-0.344-0.942-0.344h-2.369
		c-0.09,0-0.134,0.041-0.134,0.121v3.944C54.258,88.882,54.303,88.918,54.393,88.918z"/>
</g>
<g>
	<polygon fill-rule="evenodd" clip-rule="evenodd" fill="#000002" points="30.715,29.337 11.01,29.337 7.847,26.417 7.847,9.875 
		11.01,6.956 30.715,6.956 30.715,1.117 7.847,1.117 1.036,7.443 1.036,28.85 7.847,35.175 30.715,35.175 	"/>
	<path fill-rule="evenodd" clip-rule="evenodd" fill="#000002" d="M54.312,23.985l8.028,11.19h8.028l-8.272-11.434l5.838-5.595
		V6.956L61.61,1.117H37.04v34.058h6.811v-11.19H54.312L54.312,23.985z M61.124,9.388v6.325l-2.676,2.433H43.851V6.956h14.596
		L61.124,9.388z"/>
	<polygon fill-rule="evenodd" clip-rule="evenodd" fill="#000002" points="75.72,1.117 75.72,35.175 105.399,35.175 105.399,29.337 
		82.531,29.337 82.531,21.066 99.56,21.066 99.56,15.227 82.531,15.227 82.531,6.956 104.912,6.956 104.912,1.117 	"/>
	<path fill-rule="evenodd" clip-rule="evenodd" fill="#000002" d="M25.849,75.811l5.595-5.109v-9.244l-4.623-4.136l3.649-3.162
		v-8.272l-5.595-5.109H6.631l-5.595,5.109v8.272l3.649,3.162l-4.623,4.136v9.244l5.595,5.109H25.849L25.849,75.811z M21.957,60.728
		l2.676,2.432v5.109l-1.946,1.703H8.82l-1.946-1.703v-5.109l2.676-2.432H21.957L21.957,60.728z M9.794,46.618h11.92l1.946,1.703
		v4.136l-2.676,2.432h-10.46l-2.676-2.432v-4.136L9.794,46.618z"/>
	<path fill-rule="evenodd" clip-rule="evenodd" fill="#000002" d="M43.869,40.78l-6.811,6.325v22.381l6.811,6.325h19.705
		l6.812-6.325V47.105l-6.812-6.325H43.869L43.869,40.78z M47.031,46.618h13.38l3.162,2.919v17.516l-3.162,2.919H47.589h-0.558
		l-3.162-2.919V49.537L47.031,46.618z"/>
	<path fill-rule="evenodd" clip-rule="evenodd" fill="#000002" d="M93.001,64.134l8.028,11.19h8.028l-8.271-11.434l5.838-5.595
		V47.105l-6.325-5.838h-24.57v34.058h6.812v-11.19H93.001L93.001,64.134z M99.813,49.537v6.325l-2.676,2.433H82.54V47.105h14.596
		L99.813,49.537z"/>
	<rect x="53.614" y="33.324" transform="matrix(-0.8663 -0.4995 0.4995 -0.8663 71.5645 135.7442)" fill-rule="evenodd" clip-rule="evenodd" fill="#000002" width="0.665" height="49.943"/>
</g>
</svg>
